
ffprobe version N-44459-g8bdba0b Copyright (c) 2007-2012 the FFmpeg developers
  built on Sep 14 2012 18:35:56 with gcc 4.7.1 (GCC)
  configuration: --enable-gpl --enable-version3 --disable-pthreads --enable-runtime-cpudetect --enable-avisynth --enable-bzlib --enable-frei0r --enable-libass --enable-libcelt --enable-libopencore-amrnb --enable-libopencore-amrwb --enable-libfreetype --enable-libgsm --enable-libmp3lame --enable-libnut --enable-libopenjpeg --enable-librtmp --enable-libschroedinger --enable-libspeex --enable-libtheora --enable-libutvideo --enable-libvo-aacenc --enable-libvo-amrwbenc --enable-libvorbis --enable-libvpx --enable-libx264 --enable-libxavs --enable-libxvid --enable-zlib
  libavutil      51. 73.100 / 51. 73.100
  libavcodec     54. 55.100 / 54. 55.100
  libavformat    54. 27.100 / 54. 27.100
  libavdevice    54.  2.100 / 54.  2.100
  libavfilter     3. 16.103 /  3. 16.103
  libswscale      2.  1.101 /  2.  1.101
  libswresample   0. 15.100 /  0. 15.100
  libpostproc    52.  0.100 / 52.  0.100
Input #0, mov,mp4,m4a,3gp,3g2,mj2, from 'D:\Videos\In editing\G930 Upgrade\MVI_5282.MOV':
  Metadata:
    major_brand     : qt  
    minor_version   : 537331968
    compatible_brands: qt  CAEP
  Duration: 00:00:49.44, start: 0.000000, bitrate: 47634 kb/s
    Stream #0:0(eng): Video: h264 (Constrained Baseline) (avc1 / 0x31637661), yuvj420p, 1920x1080, 46081 kb/s, 29.97 fps, 29.97 tbr, 30k tbn, 60k tbc
 -y -threads 4 -i "D:\Videos\In editing\G930 Upgrade\MVI_5282.MOV" -vol 256 -r 24 -vsync 1 -vcodec mjpeg -q 5 -acodec adpcm_ima_wav -async 1 -ac 2 -vf scale=min(400\,240*a):-1,pad=400:240:abs(ow-iw)/2:abs(oh-ih)/2 CURRENT.AVI

ffmpeg version N-44459-g8bdba0b Copyright (c) 2000-2012 the FFmpeg developers
  built on Sep 14 2012 18:39:46 with gcc 4.7.1 (GCC)
  configuration: --enable-gpl --enable-version3 --disable-pthreads --enable-runtime-cpudetect --enable-avisynth --enable-bzlib --enable-frei0r --enable-libass --enable-libcelt --enable-libopencore-amrnb --enable-libopencore-amrwb --enable-libfreetype --enable-libgsm --enable-libmp3lame --enable-libnut --enable-libopenjpeg --enable-librtmp --enable-libschroedinger --enable-libspeex --enable-libtheora --enable-libutvideo --enable-libvo-aacenc --enable-libvo-amrwbenc --enable-libvorbis --enable-libvpx --enable-libx264 --enable-libxavs --enable-libxvid --enable-zlib
  libavutil      51. 73.100 / 51. 73.100
  libavcodec     54. 55.100 / 54. 55.100
  libavformat    54. 27.100 / 54. 27.100
  libavdevice    54.  2.100 / 54.  2.100
  libavfilter     3. 16.103 /  3. 16.103
  libswscale      2.  1.101 /  2.  1.101
  libswresample   0. 15.100 /  0. 15.100
  libpostproc    52.  0.100 / 52.  0.100
Guessed Channel Layout for  Input Stream #0.1 : stereo
Input #0, mov,mp4,m4a,3gp,3g2,mj2, from 'D:\Videos\In editing\G930 Upgrade\MVI_5282.MOV':
  Metadata:
    major_brand     : qt  
    minor_version   : 537331968
    compatible_brands: qt  CAEP
    creation_time   : 2015-06-21 10:02:43
  Duration: 00:00:49.44, start: 0.000000, bitrate: 47634 kb/s
    Stream #0:0(eng): Video: h264 (Constrained Baseline) (avc1 / 0x31637661), yuvj420p, 1920x1080, 46081 kb/s, 29.97 fps, 29.97 tbr, 30k tbn, 60k tbc
    Metadata:
      creation_time   : 2015-06-21 10:02:43
    Stream #0:1(eng): Audio: pcm_s16le (sowt / 0x74776F73), 48000 Hz, stereo, s16, 1536 kb/s
    Metadata:
      creation_time   : 2015-06-21 10:02:43
-async is forwarded to lavfi similarly to -af aresample=min_comp=0.001:min_hard_comp=0.100000.
Output #0, avi, to 'CURRENT.AVI':
  Metadata:
    major_brand     : qt  
    minor_version   : 537331968
    compatible_brands: qt  CAEP
    ISFT            : Lavf54.27.100
    Stream #0:0(eng): Video: mjpeg (MJPG / 0x47504A4D), yuvj420p, 400x240, q=2-31, 200 kb/s, 24 tbn, 24 tbc
    Metadata:
      creation_time   : 2015-06-21 10:02:43
    Stream #0:1(eng): Audio: adpcm_ima_wav ([17][0][0][0] / 0x0011), 48000 Hz, stereo, s16, 384 kb/s
    Metadata:
      creation_time   : 2015-06-21 10:02:43
Stream mapping:
  Stream #0:0 -> #0:0 (h264 -> mjpeg)
  Stream #0:1 -> #0:1 (pcm_s16le -> adpcm_ima_wav)
Press [q] to stop, [?] for help
frame=   94 fps=0.0 q=0.0 size=    1567kB time=00:00:03.98 bitrate=3223.4kbits/s dup=0 drop=21    
frame=  186 fps=184 q=0.0 size=    3031kB time=00:00:07.98 bitrate=3108.5kbits/s dup=0 drop=43    
frame=  276 fps=182 q=0.0 size=    4578kB time=00:00:11.99 bitrate=3127.3kbits/s dup=0 drop=66    
frame=  368 fps=182 q=0.0 size=    5958kB time=00:00:15.99 bitrate=3051.0kbits/s dup=0 drop=89    
frame=  458 fps=182 q=0.0 size=    7383kB time=00:00:20.00 bitrate=3023.7kbits/s dup=0 drop=111    
frame=  555 fps=184 q=0.0 size=    8979kB time=00:00:24.00 bitrate=3064.1kbits/s dup=0 drop=135    
frame=  648 fps=184 q=0.0 size=   10502kB time=00:00:27.01 bitrate=3184.6kbits/s dup=0 drop=159    
frame=  741 fps=184 q=0.0 size=   12075kB time=00:00:31.01 bitrate=3189.0kbits/s dup=0 drop=181    
frame=  835 fps=185 q=0.0 size=   13621kB time=00:00:35.02 bitrate=3186.0kbits/s dup=0 drop=205    
frame=  937 fps=186 q=0.0 size=   15234kB time=00:00:39.04 bitrate=3195.9kbits/s dup=0 drop=230    
frame= 1036 fps=187 q=0.0 size=   16453kB time=00:00:44.02 bitrate=3061.3kbits/s dup=0 drop=255    
frame= 1135 fps=188 q=0.0 size=   18087kB time=00:00:48.03 bitrate=3084.8kbits/s dup=0 drop=280    
frame= 1189 fps=188 q=0.0 Lsize=   19167kB time=00:00:49.54 bitrate=3169.4kbits/s dup=0 drop=293    

 -ss 0 -t 600 -y -threads 4 -i CURRENT.AVI -r 24 -vsync 1 -vcodec mjpeg -q 5 -acodec adpcm_ima_wav -async 1 -ac 2 "D:\Desktop\NIN_0011.AVI"

ffmpeg version N-44459-g8bdba0b Copyright (c) 2000-2012 the FFmpeg developers
  built on Sep 14 2012 18:39:46 with gcc 4.7.1 (GCC)
  configuration: --enable-gpl --enable-version3 --disable-pthreads --enable-runtime-cpudetect --enable-avisynth --enable-bzlib --enable-frei0r --enable-libass --enable-libcelt --enable-libopencore-amrnb --enable-libopencore-amrwb --enable-libfreetype --enable-libgsm --enable-libmp3lame --enable-libnut --enable-libopenjpeg --enable-librtmp --enable-libschroedinger --enable-libspeex --enable-libtheora --enable-libutvideo --enable-libvo-aacenc --enable-libvo-amrwbenc --enable-libvorbis --enable-libvpx --enable-libx264 --enable-libxavs --enable-libxvid --enable-zlib
  libavutil      51. 73.100 / 51. 73.100
  libavcodec     54. 55.100 / 54. 55.100
  libavformat    54. 27.100 / 54. 27.100
  libavdevice    54.  2.100 / 54.  2.100
  libavfilter     3. 16.103 /  3. 16.103
  libswscale      2.  1.101 /  2.  1.101
  libswresample   0. 15.100 /  0. 15.100
  libpostproc    52.  0.100 / 52.  0.100
[avi @ 0000000001f7e4a0] non-interleaved AVI
Guessed Channel Layout for  Input Stream #0.1 : stereo
Input #0, avi, from 'CURRENT.AVI':
  Metadata:
    encoder         : Lavf54.27.100
  Duration: 00:00:49.54, start: 0.000000, bitrate: 3169 kb/s
    Stream #0:0: Video: mjpeg (MJPG / 0x47504A4D), yuvj420p, 400x240, 24 tbr, 24 tbn, 24 tbc
    Stream #0:1: Audio: adpcm_ima_wav ([17][0][0][0] / 0x0011), 48000 Hz, stereo, s16, 384 kb/s
-t is not an input option, keeping it for the next output; consider fixing your command line.
-async is forwarded to lavfi similarly to -af aresample=min_comp=0.001:min_hard_comp=0.100000.
Output #0, avi, to 'D:\Desktop\NIN_0011.AVI':
  Metadata:
    ISFT            : Lavf54.27.100
    Stream #0:0: Video: mjpeg (MJPG / 0x47504A4D), yuvj420p, 400x240, q=2-31, 200 kb/s, 24 tbn, 24 tbc
    Stream #0:1: Audio: adpcm_ima_wav ([17][0][0][0] / 0x0011), 48000 Hz, stereo, s16, 384 kb/s
Stream mapping:
  Stream #0:0 -> #0:0 (mjpeg -> mjpeg)
  Stream #0:1 -> #0:1 (adpcm_ima_wav -> adpcm_ima_wav)
Press [q] to stop, [?] for help
frame=  864 fps=0.0 q=0.0 size=   14166kB time=00:00:35.99 bitrate=3223.7kbits/s    
frame= 1189 fps=0.0 q=0.0 Lsize=   19167kB time=00:00:49.54 bitrate=3169.4kbits/s    

 -ss 600 -t 600 -y -threads 4 -i CURRENT.AVI -r 24 -vsync 1 -vcodec mjpeg -q 5 -acodec adpcm_ima_wav -async 1 -ac 2 "D:\Desktop\NIN_0012.AVI"

ffmpeg version N-44459-g8bdba0b Copyright (c) 2000-2012 the FFmpeg developers
  built on Sep 14 2012 18:39:46 with gcc 4.7.1 (GCC)
  configuration: --enable-gpl --enable-version3 --disable-pthreads --enable-runtime-cpudetect --enable-avisynth --enable-bzlib --enable-frei0r --enable-libass --enable-libcelt --enable-libopencore-amrnb --enable-libopencore-amrwb --enable-libfreetype --enable-libgsm --enable-libmp3lame --enable-libnut --enable-libopenjpeg --enable-librtmp --enable-libschroedinger --enable-libspeex --enable-libtheora --enable-libutvideo --enable-libvo-aacenc --enable-libvo-amrwbenc --enable-libvorbis --enable-libvpx --enable-libx264 --enable-libxavs --enable-libxvid --enable-zlib
  libavutil      51. 73.100 / 51. 73.100
  libavcodec     54. 55.100 / 54. 55.100
  libavformat    54. 27.100 / 54. 27.100
  libavdevice    54.  2.100 / 54.  2.100
  libavfilter     3. 16.103 /  3. 16.103
  libswscale      2.  1.101 /  2.  1.101
  libswresample   0. 15.100 /  0. 15.100
  libpostproc    52.  0.100 / 52.  0.100
[avi @ 000000000039e4a0] non-interleaved AVI
Guessed Channel Layout for  Input Stream #0.1 : stereo
Input #0, avi, from 'CURRENT.AVI':
  Metadata:
    encoder         : Lavf54.27.100
  Duration: 00:00:49.54, start: 0.000000, bitrate: 3169 kb/s
    Stream #0:0: Video: mjpeg (MJPG / 0x47504A4D), yuvj420p, 400x240, 24 tbr, 24 tbn, 24 tbc
    Stream #0:1: Audio: adpcm_ima_wav ([17][0][0][0] / 0x0011), 48000 Hz, stereo, s16, 384 kb/s
-t is not an input option, keeping it for the next output; consider fixing your command line.
-async is forwarded to lavfi similarly to -af aresample=min_comp=0.001:min_hard_comp=0.100000.
Output #0, avi, to 'D:\Desktop\NIN_0012.AVI':
  Metadata:
    ISFT            : Lavf54.27.100
    Stream #0:0: Video: mjpeg (MJPG / 0x47504A4D), yuvj420p, 400x240, q=2-31, 200 kb/s, 24 tbn, 24 tbc
    Stream #0:1: Audio: adpcm_ima_wav ([17][0][0][0] / 0x0011), 48000 Hz, stereo, s16, 384 kb/s
Stream mapping:
  Stream #0:0 -> #0:0 (mjpeg -> mjpeg)
  Stream #0:1 -> #0:1 (adpcm_ima_wav -> adpcm_ima_wav)
Press [q] to stop, [?] for help
frame=    0 fps=0.0 q=0.0 Lsize=      10k